<svg version="1.2" xmlns="http://www.w3.org/2000/svg" viewBox="0 0 250 110" width="250" height="110"><style>.a{fill:#ed1c24}</style><path fill-rule="evenodd" class="a" d="m5 3h59v76h-59zm30 24c-7 0-12.6 2.6-17.1 7.9-6.4 7.4-7.6 16.3-3.3 24.9 8 16 30 17.4 39.5 2.4 3.9-6.1 3.7-7.8-0.5-3.6-2.6 2.6-4.2 3.4-7 3.4-7.2 0-11.6-4.3-11.6-11.1 0-8.8 8.8-13.6 17-9.4 3.5 1.8 3.8 3.1 1 3.8-2.6 0.7-3.6 3.3-2 5.2 1.8 2.2 4.7 1.8 6.1-0.6 2.7-5.2-4.5-17.4-12.5-21-2.4-1.1-6.4-1.9-9.6-1.9z"/><path class="a" d="m5 102v3h29.5 29.5v-3-3h-29.5-29.5z"/><path  d="m8.8 93.1q-0.7 0-1.3-0.2-0.6-0.3-1.1-0.8-0.5-0.6-0.7-1.4-0.3-0.9-0.3-2 0-1.4 0.5-2.3 0.4-0.9 1.2-1.4 0.8-0.5 1.8-0.5 0.7 0 1.1 0.1 0.4 0.1 0.6 0.3 0.3 0.2 0.5 0.3l-0.7 1.3q-0.3-0.3-0.6-0.5-0.2-0.1-0.8-0.1-0.6 0-1.1 0.3-0.4 0.4-0.6 1-0.3 0.6-0.3 1.4 0 1.6 0.6 2.4 0.5 0.8 1.2 0.8 0.6 0 1-0.2 0.4-0.1 0.6-0.4l0.7 1.2q-0.2 0.2-0.5 0.3-0.3 0.2-0.7 0.3-0.5 0.1-1.1 0.1zm5-0.1h-1.5v-8.4h1.5v3.5h2.8v-3.5h1.5v8.4h-1.5v-3.6h-2.8zm6.8 0h-1.7l3.6-8.5h0.1l3.5 8.5h-1.6l-0.5-1.2h-2.9zm1.9-5.3l-0.2 0.7-0.9 2.3h2.1l-0.8-2.3zm7.8 2.4l2.1 2.9h-1.8l-2.2-3v3h-1.5v-8.4h2.3q0.9 0 1.6 0.3 0.6 0.2 1 0.8 0.4 0.6 0.4 1.6 0 0.6-0.2 1.1-0.2 0.6-0.6 1.1-0.4 0.4-1.1 0.6zm-1.9-4.3v3.4h0.7q0.5 0 0.8-0.2 0.4-0.3 0.6-0.7 0.2-0.4 0.2-0.8 0-0.9-0.4-1.3-0.4-0.4-1.3-0.4zm8.1 7.2h-1.5v-7h-2v-1.4h5.4v1.4h-1.9zm7.7 0h-4.6v-8.4h4.4v1.3h-2.9v2h2.3v1.3h-2.3v2.4h3.1zm4.9-2.9l2.2 2.9h-1.9l-2.1-3v3h-1.6v-8.3h2.4q0.8 0 1.5 0.2 0.7 0.3 1.1 0.9 0.3 0.5 0.3 1.5 0 0.6-0.1 1.2-0.2 0.5-0.6 1-0.5 0.5-1.2 0.6zm-1.8-4.2v3.4h0.6q0.5 0 0.9-0.3 0.3-0.2 0.5-0.6 0.2-0.4 0.2-0.9 0-0.8-0.4-1.2-0.3-0.4-1.2-0.4zm9.9 7.1h-4.6v-8.3h4.4v1.3h-2.9v1.9h2.3v1.3h-2.3v2.5h3.1zm3.7 0h-2.2v-8.4h2.2q1.8 0 2.8 1 1 1.1 1 3.1 0 1.3-0.5 2.3-0.4 0.9-1.3 1.5-0.8 0.5-2 0.5zm-0.1-7.2h-0.5v5.9h0.5q0.7 0 1.1-0.3 0.5-0.2 0.7-0.6 0.3-0.5 0.4-1 0.1-0.5 0.1-1.1 0-0.7-0.2-1.4-0.2-0.6-0.7-1.1-0.5-0.4-1.4-0.4z"/><path  d="m70.7 56.2q-1.1 0-2.1-0.4-1-0.5-1.8-1.4-0.8-0.9-1.3-2.3-0.5-1.4-0.5-3.3 0-2.2 0.8-3.8 0.8-1.6 2.1-2.4 1.4-0.8 3-0.8 1.1 0 1.8 0.2 0.7 0.2 1.1 0.5 0.4 0.3 0.7 0.6l-1.1 2.1q-0.5-0.5-0.9-0.8-0.5-0.3-1.5-0.3-1 0-1.7 0.6-0.7 0.6-1.1 1.6-0.4 1.1-0.4 2.4 0 2.6 0.9 3.9 0.9 1.4 2.1 1.4 0.9 0 1.6-0.3 0.7-0.3 1-0.6l1.1 2q-0.3 0.2-0.7 0.5-0.5 0.2-1.3 0.4-0.7 0.2-1.8 0.2zm8.4-0.2h-2.6v-13.9h2.6v5.8h4.6v-5.8h2.6v13.9h-2.6v-5.9h-4.6zm11.3 0h-2.8l5.9-14.2h0.2l5.9 14.2h-2.7l-0.8-2h-4.9zm3.1-8.9l-0.3 1.1-1.4 3.8h3.5l-1.4-3.8zm13 4l3.6 4.9h-3.1l-3.6-5.1v5.1h-2.5v-14h3.8q1.5 0 2.6 0.5 1.1 0.4 1.8 1.3 0.6 1 0.6 2.7 0 0.9-0.3 1.9-0.3 0.9-1 1.7-0.7 0.7-1.9 1zm-3.1-7.1v5.7h1.1q0.8 0 1.4-0.4 0.6-0.4 0.9-1.1 0.3-0.7 0.3-1.5 0-1.3-0.6-2-0.6-0.7-2.1-0.7zm13.5 12h-2.6v-11.7h-3.2v-2.3h9v2.3h-3.2zm12.9 0h-7.7v-13.9h7.3v2.1h-4.8v3.3h3.8v2.1h-3.8v4.1h5.2zm8.1-4.8l3.6 4.8h-3.1l-3.6-5v5h-2.5v-13.9h3.8q1.5 0 2.6 0.4 1.1 0.4 1.8 1.4 0.6 1 0.6 2.6 0 1-0.3 1.9-0.3 1-1 1.7-0.7 0.8-1.9 1.1zm-3.1-7.1v5.6h1.1q0.8 0 1.4-0.4 0.6-0.4 0.9-1.1 0.3-0.6 0.3-1.4 0-1.4-0.6-2-0.6-0.7-2.1-0.7zm16.6 11.9h-7.6v-13.9h7.2v2.2h-4.7v3.2h3.7v2.2h-3.7v4.1h5.1zm6.1 0h-3.6v-14h3.6q3 0 4.6 1.7 1.7 1.7 1.7 5.1 0 2.2-0.7 3.8-0.8 1.6-2.2 2.5-1.4 0.9-3.4 0.9zm-0.1-12h-0.9v9.8h0.9q1.1 0 1.8-0.4 0.8-0.4 1.2-1.1 0.4-0.7 0.6-1.6 0.2-0.9 0.2-1.8 0-1.3-0.4-2.4-0.3-1.1-1.1-1.8-0.9-0.7-2.3-0.7zm15.1 12h-2.6v-14h2.6v5.9h4.5v-5.9h2.7v14h-2.7v-5.9h-4.5zm15.4 0.2q-1.9 0-3.2-0.9-1.2-0.9-1.9-2.5-0.7-1.6-0.7-3.8 0-2.2 0.7-3.8 0.6-1.6 1.9-2.5 1.3-0.9 3.2-0.9 1.9 0 3.2 0.9 1.3 0.9 2 2.5 0.6 1.6 0.6 3.8 0 2.2-0.7 3.8-0.6 1.6-1.9 2.5-1.3 0.9-3.2 0.9zm0-2.1q1.3 0 2.2-1.3 1-1.3 1-3.9 0-2.5-0.9-3.8-0.8-1.2-2.3-1.2-1.5 0-2.3 1.2-0.8 1.3-0.8 3.8 0 2.7 0.9 3.9 0.8 1.3 2.2 1.3zm12.9 2.1q-1.4 0-2.5-0.4-1.1-0.5-1.8-1.7-0.7-1.1-0.7-3.1v-9h2.6v9.3q0 1.1 0.4 1.7 0.4 0.6 0.9 0.8 0.6 0.2 1 0.2 0.5 0 1-0.2 0.6-0.2 0.9-0.7 0.4-0.6 0.4-1.8v-9.3h2.6v9q0 2-0.7 3.1-0.6 1.2-1.7 1.7-1.1 0.4-2.4 0.4zm11.2 0q-1.5 0-2.6-0.5-1.1-0.5-1.6-1l1-2.1q0.2 0.2 0.7 0.6 0.5 0.3 1 0.6 0.7 0.2 1.3 0.2 0.8 0 1.3-0.4 0.6-0.4 0.6-1.2 0-0.8-0.6-1.3-0.6-0.5-1.6-1.1-0.8-0.5-1.6-1-0.7-0.6-1.3-1.4-0.5-0.8-0.5-2 0-1.7 1.1-2.7 1-1.1 3.1-1.1 1 0 1.7 0.2 0.7 0.3 1.1 0.6 0.5 0.3 0.7 0.5l-1.1 2q-0.1-0.2-0.5-0.5-0.3-0.3-0.8-0.5-0.5-0.2-1-0.2-0.9 0-1.3 0.5-0.4 0.4-0.4 1.1 0 0.8 0.6 1.3 0.6 0.5 1.5 1 0.9 0.6 1.7 1.1 0.8 0.6 1.3 1.4 0.5 0.8 0.5 2 0 1.8-1.2 2.9-1.1 1-3.1 1zm9.2-0.2h-2.6v-14h2.6zm13.1 0.3h-0.2l-6.6-7.6-0.7-0.8 0.1 1.9v6.2h-2.4v-14.2h0.2l6.6 7.7 0.7 0.9-0.1-1.9v-6.4h2.4zm8.3 0.1q-1.8 0-3.1-0.9-1.3-0.9-2-2.6-0.7-1.6-0.7-4 0-2.1 0.7-3.7 0.8-1.6 2.2-2.5 1.4-0.9 3.2-0.9 1.4 0 2.1 0.2 0.8 0.2 1.3 0.5 0.4 0.3 0.7 0.6l-1.1 2.2q-0.2-0.2-0.5-0.5-0.3-0.2-0.9-0.4-0.6-0.2-1.5-0.2-1 0-1.8 0.6-0.8 0.6-1.3 1.6-0.5 1.1-0.5 2.4 0 2.5 0.9 3.9 0.9 1.4 2.3 1.4 1.6 0 2.2-0.7 0.7-0.7 0.7-2.1 0-0.3 0-0.6h-2.9v-2.2h5.2q0.1 0.5 0.1 1 0 0.5 0 1 0 1.1-0.2 2.2-0.2 1-0.8 1.9-0.6 0.8-1.6 1.3-1.1 0.5-2.7 0.5z"/></svg>